<svg width="36" height="35" viewBox="0 0 36 35" fill="none" xmlns="http://www.w3.org/2000/svg">
<path fill-rule="evenodd" clip-rule="evenodd" d="M35.2645 17.3822C35.2645 20.8201 34.245 24.1808 32.335 27.0393C30.425 29.8978 27.7103 32.1257 24.5341 33.4413C21.3579 34.7569 17.863 35.1012 14.4911 34.4305C11.1193 33.7598 8.02209 32.1043 5.59114 29.6733C3.1602 27.2424 1.5047 24.1452 0.834002 20.7733C0.163305 17.4015 0.507532 13.9065 1.82315 10.7303C3.13877 7.55414 5.36669 4.83941 8.22519 2.92943C11.0837 1.01944 14.4444 0 17.8822 0C20.1649 0 22.4252 0.449602 24.5341 1.32314C26.643 2.19668 28.5592 3.47705 30.1733 5.09114C31.7874 6.70522 33.0678 8.62142 33.9413 10.7303C34.8149 12.8392 35.2645 15.0996 35.2645 17.3822ZM9.37509 19.4359C9.78859 20.931 10.9099 21.6787 12.739 21.6788C13.916 21.6788 14.8067 21.2811 15.4112 20.4858L17.8925 21.9172C16.7152 23.6192 14.9816 24.4701 12.6916 24.47C10.7193 24.47 9.13681 23.8736 7.94415 22.6807C6.79881 21.4624 6.15918 19.8544 6.15475 18.1823C6.15033 16.5101 6.78144 14.8988 7.92032 13.6744C9.09709 12.4741 10.608 11.874 12.453 11.874C13.2622 11.8508 14.067 12.0005 14.8138 12.3132C15.5605 12.6258 16.2319 13.0942 16.7831 13.6871C17.9214 14.8985 18.5345 16.5107 18.4889 18.1724C18.4864 18.5965 18.4464 19.0196 18.3695 19.4367L9.37509 19.4359ZM9.32666 17.05H15.4112C15.2917 16.3301 14.9038 15.6821 14.3257 15.2367C13.7821 14.8411 13.125 14.6319 12.4528 14.6405C11.7168 14.6117 10.993 14.8347 10.4008 15.2727C9.84392 15.7196 9.46336 16.3493 9.32666 17.05ZM23.7914 24.0103C24.5636 24.3227 25.3901 24.4789 26.2231 24.4697L26.2241 24.4695C27.3391 24.4816 28.4363 24.1889 29.3971 23.6228C30.3259 23.0843 31.0923 22.3055 31.6159 21.3682L28.9439 19.8412C28.71 20.3295 28.331 20.7336 27.8586 20.9982C27.3527 21.2819 26.7804 21.426 26.2005 21.4156C25.7761 21.4286 25.3535 21.3537 24.9594 21.1957C24.5653 21.0377 24.2081 20.8 23.9102 20.4974C23.3269 19.8585 23.0036 19.0246 23.0036 18.1594C23.0036 17.2943 23.3269 16.4604 23.9102 15.8215C24.2081 15.5189 24.5653 15.2812 24.9594 15.1231C25.3536 14.9651 25.7761 14.8901 26.2005 14.903C26.7741 14.8949 27.339 15.0433 27.8345 15.3323C28.3058 15.6038 28.6842 16.0112 28.9201 16.5013L31.5672 14.9507C31.0729 14.0109 30.3194 13.2325 29.3961 12.708C28.4329 12.149 27.3366 11.8604 26.2231 11.8728C25.3901 11.8636 24.5636 12.0198 23.7914 12.3322C23.0192 12.6446 22.3167 13.1071 21.7244 13.6929C21.1322 14.2786 20.662 14.9761 20.3411 15.7448C20.0202 16.5135 19.855 17.3382 19.855 18.1712C19.855 19.0042 20.0202 19.829 20.3411 20.5977C20.662 21.3664 21.1322 22.0638 21.7244 22.6496C22.3167 23.2354 23.0192 23.6979 23.7914 24.0103Z" fill="#F7CA11"/>
</svg>
